<?xml version="1.0" encoding="UTF-8"?><svg xmlns="http://www.w3.org/2000/svg" xmlns:xlink="http://www.w3.org/1999/xlink" width="375pt" zoomAndPan="magnify" viewBox="0 0 375 374.999991" height="374.999991pt" preserveAspectRatio="xMidYMid meet" version="1.2"><defs><g/></defs><g xml:id="surface1" id="surface1"><rect x="0" width="375" y="0" height="374.999991" style="fill:rgb(100%,100%,100%);fill-opacity:1;stroke:none;"/><rect x="0" width="375" y="0" height="374.999991" style="fill:rgb(100%,100%,100%);fill-opacity:1;stroke:none;"/><rect x="0" width="375" y="0" height="374.999991" style="fill:rgb(0%,0%,0%);fill-opacity:1;stroke:none;"/><g style="fill:rgb(100%,100%,100%);fill-opacity:1;"><g transform="translate(68.102842, 172.657649)"><path style="stroke:none;" d="M 4.46875 -15.59375 L 4.46875 -9.078125 L 14.25 -9.078125 L 14.25 -7.109375 L 4.46875 -7.109375 L 4.46875 0 L 2.09375 0 L 2.09375 -17.546875 L 14.5625 -17.546875 L 14.5625 -15.59375 Z M 4.46875 -15.59375 "/></g></g><g style="fill:rgb(100%,100%,100%);fill-opacity:1;"><g transform="translate(90.105256, 172.657649)"><path style="stroke:none;" d="M 2.359375 0 L 2.359375 -17.546875 L 4.734375 -17.546875 L 4.734375 0 Z M 2.359375 0 "/></g></g><g style="fill:rgb(100%,100%,100%);fill-opacity:1;"><g transform="translate(103.615973, 172.657649)"><path style="stroke:none;" d="M 9.734375 0 L 7.265625 0 L 0.109375 -17.546875 L 2.609375 -17.546875 L 7.46875 -5.1875 L 8.515625 -2.09375 L 9.5625 -5.1875 L 14.390625 -17.546875 L 16.890625 -17.546875 Z M 9.734375 0 "/></g></g><g style="fill:rgb(100%,100%,100%);fill-opacity:1;"><g transform="translate(127.050273, 172.657649)"><path style="stroke:none;" d="M 2.09375 0 L 2.09375 -17.546875 L 15.40625 -17.546875 L 15.40625 -15.59375 L 4.46875 -15.59375 L 4.46875 -9.96875 L 14.65625 -9.96875 L 14.65625 -8.0625 L 4.46875 -8.0625 L 4.46875 -1.9375 L 15.90625 -1.9375 L 15.90625 0 Z M 2.09375 0 "/></g></g><g style="fill:rgb(100%,100%,100%);fill-opacity:1;"><g transform="translate(150.484572, 172.657649)"><path style="stroke:none;" d="M 14.5 0 L 9.9375 -7.28125 L 4.46875 -7.28125 L 4.46875 0 L 2.09375 0 L 2.09375 -17.546875 L 10.34375 -17.546875 C 12.320312 -17.546875 13.847656 -17.101562 14.921875 -16.21875 C 15.992188 -15.332031 16.53125 -14.101562 16.53125 -12.53125 C 16.53125 -11.226562 16.148438 -10.128906 15.390625 -9.234375 C 14.628906 -8.347656 13.582031 -7.789062 12.25 -7.5625 L 17.234375 0 Z M 14.140625 -12.5 C 14.140625 -13.519531 13.789062 -14.296875 13.09375 -14.828125 C 12.40625 -15.367188 11.410156 -15.640625 10.109375 -15.640625 L 4.46875 -15.640625 L 4.46875 -9.171875 L 10.203125 -9.171875 C 11.460938 -9.171875 12.429688 -9.460938 13.109375 -10.046875 C 13.796875 -10.628906 14.140625 -11.445312 14.140625 -12.5 Z M 14.140625 -12.5 "/></g></g><g style="fill:rgb(100%,100%,100%);fill-opacity:1;"><g transform="translate(175.325849, 172.657649)"><path style="stroke:none;" d="M 18.609375 -8.859375 C 18.609375 -7.015625 18.257812 -5.40625 17.5625 -4.03125 C 16.863281 -2.65625 15.859375 -1.597656 14.546875 -0.859375 C 13.234375 -0.117188 11.6875 0.25 9.90625 0.25 C 8.101562 0.25 6.546875 -0.113281 5.234375 -0.84375 C 3.929688 -1.570312 2.929688 -2.628906 2.234375 -4.015625 C 1.546875 -5.398438 1.203125 -7.015625 1.203125 -8.859375 C 1.203125 -11.660156 1.96875 -13.851562 3.5 -15.4375 C 5.039062 -17.019531 7.179688 -17.8125 9.921875 -17.8125 C 11.703125 -17.8125 13.25 -17.453125 14.5625 -16.734375 C 15.875 -16.023438 16.875 -14.992188 17.5625 -13.640625 C 18.257812 -12.285156 18.609375 -10.691406 18.609375 -8.859375 Z M 16.1875 -8.859375 C 16.1875 -11.035156 15.640625 -12.742188 14.546875 -13.984375 C 13.453125 -15.234375 11.910156 -15.859375 9.921875 -15.859375 C 7.910156 -15.859375 6.359375 -15.242188 5.265625 -14.015625 C 4.171875 -12.785156 3.625 -11.066406 3.625 -8.859375 C 3.625 -6.648438 4.175781 -4.898438 5.28125 -3.609375 C 6.394531 -2.328125 7.9375 -1.6875 9.90625 -1.6875 C 11.925781 -1.6875 13.476562 -2.304688 14.5625 -3.546875 C 15.644531 -4.796875 16.1875 -6.566406 16.1875 -8.859375 Z M 16.1875 -8.859375 "/></g></g><g style="fill:rgb(100%,100%,100%);fill-opacity:1;"><g transform="translate(201.586559, 172.657649)"><path style="stroke:none;" d="M 9.859375 -15.859375 C 7.921875 -15.859375 6.410156 -15.234375 5.328125 -13.984375 C 4.242188 -12.734375 3.703125 -11.023438 3.703125 -8.859375 C 3.703125 -6.703125 4.265625 -4.96875 5.390625 -3.65625 C 6.515625 -2.351562 8.039062 -1.703125 9.96875 -1.703125 C 12.414062 -1.703125 14.257812 -2.921875 15.5 -5.359375 L 17.4375 -4.390625 C 16.71875 -2.867188 15.703125 -1.710938 14.390625 -0.921875 C 13.085938 -0.140625 11.570312 0.25 9.84375 0.25 C 8.082031 0.25 6.554688 -0.113281 5.265625 -0.84375 C 3.972656 -1.582031 2.988281 -2.632812 2.3125 -4 C 1.632812 -5.363281 1.296875 -6.984375 1.296875 -8.859375 C 1.296875 -11.648438 2.050781 -13.835938 3.5625 -15.421875 C 5.070312 -17.015625 7.164062 -17.8125 9.84375 -17.8125 C 11.707031 -17.8125 13.265625 -17.441406 14.515625 -16.703125 C 15.765625 -15.972656 16.6875 -14.890625 17.28125 -13.453125 L 15.03125 -12.71875 C 14.625 -13.738281 13.96875 -14.515625 13.0625 -15.046875 C 12.164062 -15.585938 11.097656 -15.859375 9.859375 -15.859375 Z M 9.859375 -15.859375 "/></g></g><g style="fill:rgb(100%,100%,100%);fill-opacity:1;"><g transform="translate(226.427835, 172.657649)"><path style="stroke:none;" d="M 13.765625 0 L 6.765625 -8.46875 L 4.46875 -6.71875 L 4.46875 0 L 2.09375 0 L 2.09375 -17.546875 L 4.46875 -17.546875 L 4.46875 -8.75 L 12.921875 -17.546875 L 15.71875 -17.546875 L 8.25 -9.921875 L 16.71875 0 Z M 13.765625 0 "/></g></g><g style="fill:rgb(100%,100%,100%);fill-opacity:1;"><g transform="translate(249.862129, 172.657649)"><path style="stroke:none;" d="M 15.84375 -4.84375 C 15.84375 -3.226562 15.207031 -1.972656 13.9375 -1.078125 C 12.675781 -0.191406 10.894531 0.25 8.59375 0.25 C 4.3125 0.25 1.832031 -1.234375 1.15625 -4.203125 L 3.46875 -4.671875 C 3.726562 -3.617188 4.289062 -2.84375 5.15625 -2.34375 C 6.019531 -1.851562 7.191406 -1.609375 8.671875 -1.609375 C 10.210938 -1.609375 11.398438 -1.867188 12.234375 -2.390625 C 13.066406 -2.921875 13.484375 -3.695312 13.484375 -4.71875 C 13.484375 -5.289062 13.351562 -5.753906 13.09375 -6.109375 C 12.832031 -6.472656 12.460938 -6.769531 11.984375 -7 C 11.515625 -7.226562 10.953125 -7.421875 10.296875 -7.578125 C 9.640625 -7.734375 8.914062 -7.90625 8.125 -8.09375 C 6.726562 -8.394531 5.671875 -8.695312 4.953125 -9 C 4.242188 -9.3125 3.679688 -9.65625 3.265625 -10.03125 C 2.847656 -10.414062 2.53125 -10.859375 2.3125 -11.359375 C 2.09375 -11.867188 1.984375 -12.453125 1.984375 -13.109375 C 1.984375 -14.609375 2.554688 -15.765625 3.703125 -16.578125 C 4.847656 -17.398438 6.492188 -17.8125 8.640625 -17.8125 C 10.628906 -17.8125 12.148438 -17.503906 13.203125 -16.890625 C 14.265625 -16.273438 15.003906 -15.234375 15.421875 -13.765625 L 13.09375 -13.359375 C 12.832031 -14.285156 12.335938 -14.957031 11.609375 -15.375 C 10.890625 -15.800781 9.890625 -16.015625 8.609375 -16.015625 C 7.210938 -16.015625 6.144531 -15.78125 5.40625 -15.3125 C 4.664062 -14.851562 4.296875 -14.160156 4.296875 -13.234375 C 4.296875 -12.691406 4.4375 -12.242188 4.71875 -11.890625 C 5.007812 -11.546875 5.425781 -11.25 5.96875 -11 C 6.507812 -10.757812 7.582031 -10.457031 9.1875 -10.09375 C 9.726562 -9.96875 10.265625 -9.84375 10.796875 -9.71875 C 11.335938 -9.59375 11.851562 -9.4375 12.34375 -9.25 C 12.832031 -9.070312 13.289062 -8.863281 13.71875 -8.625 C 14.144531 -8.382812 14.515625 -8.085938 14.828125 -7.734375 C 15.140625 -7.390625 15.382812 -6.976562 15.5625 -6.5 C 15.75 -6.03125 15.84375 -5.476562 15.84375 -4.84375 Z M 15.84375 -4.84375 "/></g></g><g style="fill:rgb(100%,100%,100%);fill-opacity:1;"><g transform="translate(151.143568, 193.766646)"><path style="stroke:none;" d="M 7.421875 -3.859375 C 7.421875 -3.078125 7.265625 -2.394531 6.953125 -1.8125 C 6.648438 -1.226562 6.21875 -0.78125 5.65625 -0.46875 C 5.101562 -0.15625 4.460938 0 3.734375 0 L 0.90625 0 L 0.90625 -7.5625 L 3.40625 -7.5625 C 4.6875 -7.5625 5.675781 -7.238281 6.375 -6.59375 C 7.070312 -5.957031 7.421875 -5.046875 7.421875 -3.859375 Z M 6.390625 -3.859375 C 6.390625 -4.796875 6.128906 -5.507812 5.609375 -6 C 5.097656 -6.5 4.359375 -6.75 3.390625 -6.75 L 1.921875 -6.75 L 1.921875 -0.828125 L 3.609375 -0.828125 C 4.171875 -0.828125 4.660156 -0.945312 5.078125 -1.1875 C 5.492188 -1.425781 5.816406 -1.773438 6.046875 -2.234375 C 6.273438 -2.691406 6.390625 -3.234375 6.390625 -3.859375 Z M 6.390625 -3.859375 "/></g></g><g style="fill:rgb(100%,100%,100%);fill-opacity:1;"><g transform="translate(162.381773, 193.766646)"><path style="stroke:none;" d="M 0.90625 0 L 0.90625 -7.5625 L 6.640625 -7.5625 L 6.640625 -6.734375 L 1.921875 -6.734375 L 1.921875 -4.296875 L 6.328125 -4.296875 L 6.328125 -3.46875 L 1.921875 -3.46875 L 1.921875 -0.84375 L 6.859375 -0.84375 L 6.859375 0 Z M 0.90625 0 "/></g></g><g style="fill:rgb(100%,100%,100%);fill-opacity:1;"><g transform="translate(173.013475, 193.766646)"><path style="stroke:none;" d="M 4.203125 0 L 3.140625 0 L 0.046875 -7.5625 L 1.125 -7.5625 L 3.21875 -2.234375 L 3.671875 -0.90625 L 4.125 -2.234375 L 6.203125 -7.5625 L 7.28125 -7.5625 Z M 4.203125 0 "/></g></g><g style="fill:rgb(100%,100%,100%);fill-opacity:1;"><g transform="translate(183.645176, 193.766646)"><path style="stroke:none;" d="M 0.90625 0 L 0.90625 -7.5625 L 6.640625 -7.5625 L 6.640625 -6.734375 L 1.921875 -6.734375 L 1.921875 -4.296875 L 6.328125 -4.296875 L 6.328125 -3.46875 L 1.921875 -3.46875 L 1.921875 -0.84375 L 6.859375 -0.84375 L 6.859375 0 Z M 0.90625 0 "/></g></g><g style="fill:rgb(100%,100%,100%);fill-opacity:1;"><g transform="translate(194.27688, 193.766646)"><path style="stroke:none;" d="M 0.90625 0 L 0.90625 -7.5625 L 1.921875 -7.5625 L 1.921875 -0.84375 L 5.75 -0.84375 L 5.75 0 Z M 0.90625 0 "/></g></g><g style="fill:rgb(100%,100%,100%);fill-opacity:1;"><g transform="translate(203.690211, 193.766646)"><path style="stroke:none;" d="M 8.03125 -3.8125 C 8.03125 -3.019531 7.878906 -2.328125 7.578125 -1.734375 C 7.273438 -1.140625 6.835938 -0.679688 6.265625 -0.359375 C 5.703125 -0.046875 5.035156 0.109375 4.265625 0.109375 C 3.492188 0.109375 2.820312 -0.046875 2.25 -0.359375 C 1.6875 -0.679688 1.253906 -1.140625 0.953125 -1.734375 C 0.660156 -2.328125 0.515625 -3.019531 0.515625 -3.8125 C 0.515625 -5.03125 0.847656 -5.976562 1.515625 -6.65625 C 2.179688 -7.34375 3.101562 -7.6875 4.28125 -7.6875 C 5.050781 -7.6875 5.71875 -7.53125 6.28125 -7.21875 C 6.851562 -6.914062 7.285156 -6.472656 7.578125 -5.890625 C 7.878906 -5.304688 8.03125 -4.613281 8.03125 -3.8125 Z M 6.984375 -3.8125 C 6.984375 -4.757812 6.742188 -5.5 6.265625 -6.03125 C 5.796875 -6.570312 5.132812 -6.84375 4.28125 -6.84375 C 3.414062 -6.84375 2.742188 -6.578125 2.265625 -6.046875 C 1.796875 -5.515625 1.5625 -4.769531 1.5625 -3.8125 C 1.5625 -2.863281 1.800781 -2.109375 2.28125 -1.546875 C 2.757812 -0.992188 3.421875 -0.71875 4.265625 -0.71875 C 5.140625 -0.71875 5.8125 -0.988281 6.28125 -1.53125 C 6.75 -2.070312 6.984375 -2.832031 6.984375 -3.8125 Z M 6.984375 -3.8125 "/></g></g><g style="fill:rgb(100%,100%,100%);fill-opacity:1;"><g transform="translate(215.540287, 193.766646)"><path style="stroke:none;" d="M 6.75 -5.296875 C 6.75 -4.578125 6.515625 -4.003906 6.046875 -3.578125 C 5.585938 -3.160156 4.957031 -2.953125 4.15625 -2.953125 L 1.921875 -2.953125 L 1.921875 0 L 0.90625 0 L 0.90625 -7.5625 L 4.09375 -7.5625 C 4.9375 -7.5625 5.585938 -7.363281 6.046875 -6.96875 C 6.515625 -6.570312 6.75 -6.015625 6.75 -5.296875 Z M 5.71875 -5.28125 C 5.71875 -6.257812 5.132812 -6.75 3.96875 -6.75 L 1.921875 -6.75 L 1.921875 -3.765625 L 4 -3.765625 C 5.144531 -3.765625 5.71875 -4.269531 5.71875 -5.28125 Z M 5.71875 -5.28125 "/></g></g><g style="fill:rgb(100%,100%,100%);fill-opacity:1;"><g transform="translate(226.171991, 193.766646)"><path style="stroke:none;" d="M 7.34375 0 L 7.34375 -5.046875 C 7.34375 -5.609375 7.359375 -6.144531 7.390625 -6.65625 C 7.210938 -6.019531 7.050781 -5.519531 6.90625 -5.15625 L 4.953125 0 L 4.234375 0 L 2.25 -5.15625 L 1.953125 -6.0625 L 1.78125 -6.65625 L 1.796875 -6.0625 L 1.8125 -5.046875 L 1.8125 0 L 0.90625 0 L 0.90625 -7.5625 L 2.25 -7.5625 L 4.265625 -2.328125 C 4.335938 -2.109375 4.40625 -1.878906 4.46875 -1.640625 C 4.539062 -1.398438 4.585938 -1.226562 4.609375 -1.125 C 4.628906 -1.257812 4.6875 -1.472656 4.78125 -1.765625 C 4.875 -2.054688 4.9375 -2.242188 4.96875 -2.328125 L 6.9375 -7.5625 L 8.265625 -7.5625 L 8.265625 0 Z M 7.34375 0 "/></g></g><g style="fill:rgb(100%,100%,100%);fill-opacity:1;"><g transform="translate(238.628569, 193.766646)"><path style="stroke:none;" d="M 0.90625 0 L 0.90625 -7.5625 L 6.640625 -7.5625 L 6.640625 -6.734375 L 1.921875 -6.734375 L 1.921875 -4.296875 L 6.328125 -4.296875 L 6.328125 -3.46875 L 1.921875 -3.46875 L 1.921875 -0.84375 L 6.859375 -0.84375 L 6.859375 0 Z M 0.90625 0 "/></g></g><g style="fill:rgb(100%,100%,100%);fill-opacity:1;"><g transform="translate(249.260273, 193.766646)"><path style="stroke:none;" d="M 5.8125 0 L 1.765625 -6.453125 L 1.78125 -5.921875 L 1.8125 -5.03125 L 1.8125 0 L 0.90625 0 L 0.90625 -7.5625 L 2.09375 -7.5625 L 6.1875 -1.078125 C 6.144531 -1.773438 6.125 -2.285156 6.125 -2.609375 L 6.125 -7.5625 L 7.046875 -7.5625 L 7.046875 0 Z M 5.8125 0 "/></g></g><g style="fill:rgb(100%,100%,100%);fill-opacity:1;"><g transform="translate(260.498473, 193.766646)"><path style="stroke:none;" d="M 3.875 -6.734375 L 3.875 0 L 2.84375 0 L 2.84375 -6.734375 L 0.25 -6.734375 L 0.25 -7.5625 L 6.46875 -7.5625 L 6.46875 -6.734375 Z M 3.875 -6.734375 "/></g></g><g style="fill:rgb(100%,100%,100%);fill-opacity:1;"><g transform="translate(270.512934, 193.766646)"><path style="stroke:none;" d=""/></g></g><g style="fill:rgb(100%,100%,100%);fill-opacity:1;"><g transform="translate(276.866911, 193.766646)"><path style="stroke:none;" d="M 6.828125 -2.09375 C 6.828125 -1.394531 6.550781 -0.851562 6 -0.46875 C 5.457031 -0.0820312 4.691406 0.109375 3.703125 0.109375 C 1.859375 0.109375 0.789062 -0.53125 0.5 -1.8125 L 1.5 -2.015625 C 1.613281 -1.554688 1.851562 -1.21875 2.21875 -1 C 2.59375 -0.789062 3.101562 -0.6875 3.75 -0.6875 C 4.40625 -0.6875 4.910156 -0.800781 5.265625 -1.03125 C 5.628906 -1.257812 5.8125 -1.59375 5.8125 -2.03125 C 5.8125 -2.28125 5.753906 -2.484375 5.640625 -2.640625 C 5.535156 -2.796875 5.378906 -2.921875 5.171875 -3.015625 C 4.960938 -3.117188 4.71875 -3.203125 4.4375 -3.265625 C 4.15625 -3.335938 3.84375 -3.410156 3.5 -3.484375 C 2.90625 -3.617188 2.453125 -3.753906 2.140625 -3.890625 C 1.828125 -4.023438 1.582031 -4.171875 1.40625 -4.328125 C 1.226562 -4.492188 1.09375 -4.6875 1 -4.90625 C 0.90625 -5.125 0.859375 -5.375 0.859375 -5.65625 C 0.859375 -6.300781 1.101562 -6.800781 1.59375 -7.15625 C 2.09375 -7.507812 2.804688 -7.6875 3.734375 -7.6875 C 4.585938 -7.6875 5.238281 -7.550781 5.6875 -7.28125 C 6.144531 -7.019531 6.46875 -6.570312 6.65625 -5.9375 L 5.640625 -5.765625 C 5.535156 -6.160156 5.328125 -6.445312 5.015625 -6.625 C 4.703125 -6.8125 4.269531 -6.90625 3.71875 -6.90625 C 3.113281 -6.90625 2.648438 -6.804688 2.328125 -6.609375 C 2.015625 -6.410156 1.859375 -6.109375 1.859375 -5.703125 C 1.859375 -5.472656 1.914062 -5.28125 2.03125 -5.125 C 2.15625 -4.976562 2.332031 -4.851562 2.5625 -4.75 C 2.800781 -4.644531 3.269531 -4.515625 3.96875 -4.359375 C 4.195312 -4.304688 4.425781 -4.25 4.65625 -4.1875 C 4.882812 -4.132812 5.101562 -4.066406 5.3125 -3.984375 C 5.53125 -3.910156 5.726562 -3.820312 5.90625 -3.71875 C 6.09375 -3.613281 6.253906 -3.484375 6.390625 -3.328125 C 6.523438 -3.179688 6.628906 -3.003906 6.703125 -2.796875 C 6.785156 -2.597656 6.828125 -2.363281 6.828125 -2.09375 Z M 6.828125 -2.09375 "/></g></g><g style="fill:rgb(100%,100%,100%);fill-opacity:1;"><g transform="translate(287.498609, 193.766646)"><path style="stroke:none;" d="M 0.90625 0 L 0.90625 -7.5625 L 6.640625 -7.5625 L 6.640625 -6.734375 L 1.921875 -6.734375 L 1.921875 -4.296875 L 6.328125 -4.296875 L 6.328125 -3.46875 L 1.921875 -3.46875 L 1.921875 -0.84375 L 6.859375 -0.84375 L 6.859375 0 Z M 0.90625 0 "/></g></g><path style="fill:none;stroke-width:1;stroke-linecap:round;stroke-linejoin:miter;stroke:rgb(4.309082%,83.918762%,87.838745%);stroke-opacity:1;stroke-miterlimit:4;" d="M 0.497983 -0.00134313 L 99.451731 -0.00134313 " transform="matrix(0.750469,0,0,0.75,68.102842,189.641632)"/></g></svg>